<?xml version="1.0" encoding="UTF-8"?> <svg xmlns="http://www.w3.org/2000/svg" id="Warstwa_1" data-name="Warstwa 1" width="187.26mm" height="55.32mm" viewBox="0 0 530.81 156.8"><path d="M0,0V148.4c0,4.64,3.76,8.4,8.4,8.4H522.41c4.64,0,8.4-3.76,8.4-8.4V0H0Z" style="fill: #0f1e46;"></path><path d="M154.27,66.17c8.73,0,16.59,2.29,23.32,6.44,7.01,5,10.59,10.73,10.59,17.17v36.91h-8.3c-6.44,0-9.73-2.43-9.73-7.44v-29.47c0-4.86-7.44-9.3-15.88-9.3s-15.74,4.15-15.74,9.3v36.91h-8.3c-6.44,0-9.59-2.43-9.59-7.44v-29.47c0-12.59,15.17-23.61,33.62-23.61" style="fill: #fff;"></path><path d="M209.25,48h8.3v6.86c0,5.01-3.29,7.58-9.73,7.58h-8.3v-7.01c0-5,3.29-7.44,9.73-7.44m0,19.89h8.3v58.8h-8.3c-6.44,0-9.73-2.43-9.73-7.44v-43.92c0-5.01,3.29-7.44,9.73-7.44" style="fill: #fff;"></path><path d="M489.29,73.03c7.3,4.87,11.02,11.88,11.02,20.55v33.1h-6.15c-3.57,0-6.44-1.14-8.3-3.57-5.86,3.57-13.31,5.15-20.74,5.15-18.88,0-35.34-10.78-35.34-27.27,0,0-.05-1.53-.05-3.79s.05-3.62,.05-3.62c0-8.68,3.72-15.82,11.02-20.55,6.87-4.58,15.02-6.86,24.32-6.86s17.31,2.29,24.18,6.86m-24.18,7.44c-8.87,0-16.73,4.49-17.31,11,0,0-.2,3.13-.2,5.49s.2,6.16,.2,6.16c.39,6.08,8.44,10.83,17.31,10.83s17.31-5.1,17.31-10.83v-11.65c0-2.57-1.7-5.4-4.58-7.32-3.54-2.35-7.72-3.68-12.73-3.68" style="fill: #fff;"></path><path d="M412.35,102.79c-2.27-2.61-4.61-5.22-7.57-7.25l25.09-27.66h-14.59c-3.87,0-7.7,1.86-10.54,4.72l-15.45,17.03c-.83,.96-1.17,1.22-1.92,1.28h-2.55V48h-8.3c-6.44,0-9.73,2.43-9.73,7.44v63.81c0,5,3.29,7.44,9.73,7.44h8.3v-21.46h4.21c2.86,0,5.16,1,6.95,3.14l11.53,13.74c2.47,3,6.37,4.58,11.38,4.58h13.6l-20.14-23.89Z" style="fill: #fff;"></path><path d="M274.39,110.24c-3,3.01-9.16,3.72-13.74,3.72-7.88,0-15.37-4.44-15.37-10.17v-.1c.07,0,.16,.07,.35,.07,0,0,27.11-.02,32-.02,5.99,0,16.2-1.43,16.2-12.13,0-.27,.02-.85,.02-.85,0-7.02-3.51-12.89-10.39-17.76-6.48-4.58-14.04-6.87-22.81-6.87s-16.47,2.29-22.95,6.87c-6.88,4.72-10.39,11.83-10.39,20.57,0,0-.05,2.02-.05,3.79s.05,3.62,.05,3.62c0,17.39,15.52,27.3,33.34,27.3,14.75,0,27.78-5.58,33.07-15.9l-8.45-3.29c-3.86-1.58-8.02-1.15-10.88,1.14m-29.12-19.47c0-5.59,7.5-10.31,15.37-10.31,4.45,0,8.13,1.15,11.31,3.44,2.67,2.01,4.07,4.29,4.07,6.87v1.29h-30.38l-.37,.04v-1.33Z" style="fill: #fff;"></path><path d="M93.62,103.08c0-3.15-2-5.58-5.86-7.44-6.01-2.29-12.73-1.58-19.89-1.58s-13.02-.71-17.45-1.86c-12.3-3.15-19.89-11.58-19.89-21.75,0-4.15,1.14-8.16,3.86-11.73,6.72-9.16,18.89-13.73,36.77-13.73,14.59,0,33.91,6.58,40.2,22.03l-7.01,2.58c-4.29,1.86-10.3,.86-13.02-2.72-4.58-5.44-13.45-7.44-20.89-7.44-11.87,0-21.75,3.43-21.75,11.3,0,5.87,7.58,8.73,21.32,8.73,4.15,0,8.3-.14,12.73,.29,17.02,1.57,29.04,10.73,29.04,23.32,0,5.58-3,11.59-7.72,15.74-7.58,6.29-18.6,9.44-32.91,9.44-19.89,0-35.91-7.44-41.21-21.89l7.16-2.58c4.29-1.57,10.16-.71,12.87,2.72,3.58,3.86,10.73,7.29,21.46,7.29,8.3,0,22.17-1.72,22.17-10.73" style="fill: #fff;"></path><path d="M73.96,25.62h8.3v6.87c0,5.01-3.29,7.58-9.73,7.58h-8.3v-7.01c0-5.01,3.29-7.44,9.73-7.44" style="fill: #fff;"></path><path d="M357.65,118.96c0,5.15-3.15,7.72-9.3,7.72h-50.22c0-5.01,0-6.58,2.72-10.16l29.62-34.34h-31.47v-6.58c0-5.15,3.15-7.73,9.3-7.73h50.36c0,5.01-.15,7.01-2.86,10.02l-29.47,34.48h31.33v6.58Z" style="fill: #fff;"></path><path d="M331.43,48h8.3v6.86c0,5.01-3.29,7.58-9.73,7.58h-8.3v-7.01c0-5,3.29-7.44,9.73-7.44" style="fill: #fff;"></path><rect x="366.71" width="19.3" height="29.96" style="fill: #95c11f;"></rect><rect x="385.84" width="19.3" height="29.96" style="fill: #006935;"></rect><rect x="404.99" width="19.3" height="29.96" style="fill: #f49712;"></rect><rect x="424.13" width="19.3" height="29.96" style="fill: #e73137;"></rect><rect x="443.28" width="19.3" height="29.96" style="fill: #b20066;"></rect><rect x="462.42" width="19.3" height="29.96" style="fill: #004a99;"></rect><rect x="481.56" width="19.3" height="29.96" style="fill: #008bcb;"></rect></svg> 